<mxfile host="app.diagrams.net" modified="2024-04-02T10:44:40.129Z" agent="Mozilla/5.0 (Macintosh; Intel Mac OS X 10_15_7) AppleWebKit/605.1.15 (KHTML, like Gecko) Version/17.4.1 Safari/605.1.15" version="24.2.1" etag="aVpXg36eWs8NB_DWi5FI" type="github">
  <diagram name="Страница — 1" id="c1UMaXYkpZ9lA620PUn9">
    <mxGraphModel>
      <root>
        <mxCell id="0" />
        <mxCell id="1" parent="0" />
      </root>
    </mxGraphModel>
  </diagram>
</mxfile>
